<?xml version="1.0" standalone="no"?>
<!DOCTYPE svg PUBLIC "-//W3C//DTD SVG 20010904//EN"
 "http://www.w3.org/TR/2001/REC-SVG-20010904/DTD/svg10.dtd">
<svg version="1.0" xmlns="http://www.w3.org/2000/svg"
 width="512.000000pt" height="512.000000pt" viewBox="0 0 512.000000 512.000000"
 preserveAspectRatio="xMidYMid meet">

<g transform="translate(0.000000,512.000000) scale(0.100000,-0.100000)"
fill="#000000" stroke="none">
<path d="M1885 5114 c-139 -29 -228 -77 -325 -174 -124 -124 -194 -273 -206
-443 -9 -126 32 -279 92 -348 13 -14 11 -28 -15 -110 -23 -70 -66 -156 -168
-334 -76 -133 -155 -258 -175 -278 -43 -43 -56 -91 -39 -147 9 -31 61 -87 274
-291 144 -138 276 -260 292 -270 42 -27 92 -24 370 20 132 21 243 35 247 32 7
-7 138 -960 138 -1007 0 -16 -81 -368 -180 -782 -99 -413 -180 -764 -180 -779
0 -44 44 -128 81 -155 92 -68 197 -62 277 15 19 18 40 48 49 67 8 19 125 305
260 635 135 330 248 603 252 608 4 4 51 -86 105 -200 l98 -208 -71 -355 c-73
-366 -81 -432 -57 -478 37 -70 116 -116 201 -116 90 0 159 45 196 129 9 22 65
224 124 450 78 298 105 420 101 445 -3 19 -53 163 -112 320 l-106 285 -89 640
c-49 352 -89 652 -89 666 0 25 16 34 287 155 198 89 297 138 318 160 26 25 51
85 134 320 57 159 105 305 108 325 14 101 -73 199 -177 199 -50 0 -113 -32
-142 -71 -14 -19 -69 -131 -123 -251 l-97 -216 -127 -52 c-433 -177 -467 -187
-801 -234 -119 -17 -286 -52 -523 -110 l-348 -86 -199 150 -199 150 126 219
c80 140 149 246 189 292 l63 73 78 2 c321 9 596 315 594 662 -1 152 -44 264
-137 357 -94 94 -248 144 -369 119z m160 -188 c63 -27 104 -66 136 -131 56
-115 50 -238 -20 -380 -141 -286 -470 -355 -595 -124 -25 45 -30 67 -34 148
-5 106 14 181 66 271 29 50 101 131 146 163 86 61 223 85 301 53z"/>
<path d="M3615 4650 c-57 -29 -78 -63 -83 -132 -4 -50 -1 -64 21 -97 47 -70
151 -94 217 -48 57 38 75 71 75 136 0 48 -5 64 -29 95 -50 66 -127 83 -201 46z"/>
<path d="M2540 4203 c-59 -10 -153 -49 -197 -82 -162 -123 -219 -355 -130
-529 49 -97 122 -164 227 -212 47 -21 70 -24 161 -25 102 0 107 1 181 38 170
84 269 266 240 441 -35 212 -187 351 -402 369 -30 3 -66 3 -80 0z"/>
</g>
</svg>
